<svg xmlns="http://www.w3.org/2000/svg" width="40" height="24" viewBox="0 0 40 24">
  <g id="ico_visa" transform="translate(-4053 -20576.889)">
    <g id="Rectangle_610" data-name="Rectangle 610" transform="translate(4053 20576.889)" fill="#fff" stroke="#212121" stroke-width="1">
      <rect width="40" height="24" rx="2" stroke="none"/>
      <rect x="0.5" y="0.5" width="39" height="23" rx="1.5" fill="none"/>
    </g>
    <rect id="Rectangle_611" data-name="Rectangle 611" width="40" height="6" transform="translate(4053 20580.889)" fill="#212121"/>
    <g id="Group_866" data-name="Group 866" transform="translate(4056.05 20588.691)">
      <path id="Path_450" data-name="Path 450" d="M271.783,255.669a4.523,4.523,0,0,0-2.023.478,4.513,4.513,0,1,0,0,8.069,4.513,4.513,0,1,0,2.023-8.547Zm-7.616,4.513a3.573,3.573,0,1,1,3.572,3.572A3.577,3.577,0,0,1,264.167,260.182Zm7.616,3.572a3.582,3.582,0,0,1-1.084-.169,4.5,4.5,0,0,0,0-6.807,3.572,3.572,0,1,1,1.085,6.976Z" transform="translate(-242.895 -255.669)" fill="#212121"/>
      <rect id="Rectangle_612" data-name="Rectangle 612" width="7" height="2" transform="translate(-0.05 6.198)" fill="#212121"/>
      <rect id="Rectangle_613" data-name="Rectangle 613" width="7.116" height="2.033" transform="translate(8.108 6.198)" fill="#212121"/>
    </g>
  </g>
</svg>
