<svg xmlns="http://www.w3.org/2000/svg" width="40" height="24" viewBox="0 0 40 24">
  <g id="ico_Moca" transform="translate(-3852 -21159)">
    <g id="ico_air" transform="translate(-201 582.055)">
      <g id="Rectangle_610" data-name="Rectangle 610" transform="translate(4053 20576.945)" fill="#fff" stroke="#212121" stroke-width="1">
        <rect width="40" height="24" rx="2" stroke="none"/>
        <rect x="0.5" y="0.5" width="39" height="23" rx="1.5" fill="none"/>
      </g>
    </g>
    <g id="Layer_2" data-name="Layer 2" transform="translate(3859.978 21163.855)">
      <g id="Layer_1" data-name="Layer 1" transform="translate(-0.978 -0.857)">
        <path id="Path_498" data-name="Path 498" d="M24.409,16.121H1.2A1.192,1.192,0,0,1,0,14.915V1.354A1.192,1.192,0,0,1,1.2.149h23.2a1.192,1.192,0,0,1,1.21,1.206V14.915a1.192,1.192,0,0,1-1.21,1.207Z" transform="translate(0.001 -0.134)" fill="#1093d5"/>
        <path id="Path_499" data-name="Path 499" d="M24.409,98.891H1.206A1.207,1.207,0,0,1,0,97.685V92.05H25.62v5.635a1.207,1.207,0,0,1-1.21,1.206Z" transform="translate(0 -82.909)" fill="#00b14f"/>
        <path id="Path_500" data-name="Path 500" d="M63.479,103.3a1.627,1.627,0,0,0,1.635,1.67,1.206,1.206,0,0,0,1.334-1.207v-.225H65.156v.348h.937c.006.342-.307.742-.98.742a1.24,1.24,0,0,1-1.258-1.328,1.28,1.28,0,0,1,1.323-1.31,2.085,2.085,0,0,1,1.258.376l.023-.017v-.325a2.309,2.309,0,0,0-1.291-.377,1.655,1.655,0,0,0-1.689,1.652Zm-.539,0a2.123,2.123,0,0,0,2.174,2.185,1.712,1.712,0,0,0,1.832-1.867v-.6H65.158v.336H66.62v.314a1.373,1.373,0,0,1-1.508,1.467A1.783,1.783,0,0,1,63.3,103.3a1.823,1.823,0,0,1,1.861-1.826,2.263,2.263,0,0,1,1.291.359v-.342A2.286,2.286,0,0,0,62.94,103.3Zm4.743.3v1.787h.342V103.6a.638.638,0,0,1,.649-.684.827.827,0,0,1,.331.075,1.724,1.724,0,0,1,.151-.29.894.894,0,0,0-.476-.133.975.975,0,0,0-1,1.03Zm-.5,1.787h.343V103.6a1.122,1.122,0,0,1,1.165-1.192,1.258,1.258,0,0,1,.574.139,1.64,1.64,0,0,1,.226-.231,1.5,1.5,0,0,0-2.307,1.287Zm5.362-2.006v.5c.2-.272.376-.51.539-.707a1.647,1.647,0,0,1,1.328-.783,1.377,1.377,0,0,1,.023,2.749,1.267,1.267,0,0,1-1.246-.974l-.243.331a1.534,1.534,0,0,0,1.484.985,1.721,1.721,0,0,0-.017-3.438c-.985,0-1.432.739-1.866,1.336Zm1.061.255H73.59l-.267.365a1.12,1.12,0,0,0,2.226-.243,1.138,1.138,0,0,0-1.142-1.2,1.622,1.622,0,0,0-1.276.817c-.127.168-.348.441-.6.783v.562c.226-.337.533-.731.76-1,.382-.458.615-.806,1.1-.806a.868.868,0,0,1,.029,1.728.888.888,0,0,1-.829-.945Zm-.342-2.806v1.444a1.469,1.469,0,0,1,.342-.226v-1.215Zm-.51,1.971a4.476,4.476,0,0,1,.343-.4v-1.572h-.343Zm-1.39,1.652-.006-.006a1.024,1.024,0,0,1-.609.186.807.807,0,0,1-.812-.864.818.818,0,0,1,.8-.87.775.775,0,0,1,.794.841v1.646h.343v-1.66a1.109,1.109,0,0,0-1.131-1.165,1.146,1.146,0,0,0-1.16,1.211,1.132,1.132,0,0,0,1.16,1.207,1.283,1.283,0,0,0,.621-.18Zm-2.3-.7a1.642,1.642,0,0,0,1.675,1.722,1.078,1.078,0,0,0,.621-.185v-.343a1.092,1.092,0,0,1-.621.186,1.282,1.282,0,0,1-1.322-1.38,1.315,1.315,0,0,1,1.322-1.368,1.258,1.258,0,0,1,1.291,1.323v1.669h.351v-1.668a1.6,1.6,0,0,0-1.64-1.67,1.675,1.675,0,0,0-1.676,1.722Z" transform="translate(-56.69 -90.817)" fill="#fff"/>
        <path id="Path_501" data-name="Path 501" d="M37.261,23.47a1.2,1.2,0,0,0-1.181.687,1.443,1.443,0,0,0-2.421-.072v-.169a.457.457,0,0,0-.456-.456h-.7L32.5,27.471a.456.456,0,0,0,.455.456h.7V25.1a.7.7,0,0,1,1.39.011v2.363a.455.455,0,0,0,.455.455h.7v-2.8a.71.71,0,0,1,1.419,0v2.35a.455.455,0,0,0,.456.455h.673V24.917a1.429,1.429,0,0,0-1.49-1.452" transform="translate(-29.273 -21.13)" fill="#fff"/>
        <path id="Path_502" data-name="Path 502" d="M147.078,23.95a3.232,3.232,0,0,0-1.207-.26c-1.894,0-2.239,1-2.241,2.226h0c0,1.227.341,2.23,2.235,2.233a5.6,5.6,0,0,0,1.291-.169.092.092,0,0,0,.085-.089c0-.035-.084-.685-.084-.685a.088.088,0,0,0-.084-.085,5.164,5.164,0,0,1-1.207.175c-.993,0-1.2-.6-1.2-1.376s.132-1.371,1.208-1.37a4.749,4.749,0,0,1,1.291.26.08.08,0,0,0,.085-.076.017.017,0,0,0,0-.01c0-.035-.084-.687-.084-.687a.132.132,0,0,0-.084-.084" transform="translate(-129.367 -21.338)" fill="#fff"/>
        <path id="Path_503" data-name="Path 503" d="M186.3,23.752h-.533v.387a1.659,1.659,0,0,0-1.122-.389,1.973,1.973,0,0,0-2.156,2.226,1.971,1.971,0,0,0,2.149,2.232,1.56,1.56,0,0,0,1.126-.388.459.459,0,0,0,.453.4h.532l.006-4.012a.455.455,0,0,0-.455-.452m-1.661,3.6h0c-.859,0-1.118-.518-1.117-1.376s.262-1.371,1.121-1.37,1.119.517,1.118,1.373-.261,1.378-1.122,1.373" transform="translate(-164.368 -21.392)" fill="#fff"/>
        <path id="Path_504" data-name="Path 504" d="M100.016,23.62h0a1.973,1.973,0,0,0-2.156,2.226,2.152,2.152,0,1,0,4.3.006,1.969,1.969,0,0,0-2.146-2.232m0,3.6h0c-.862,0-1.118-.517-1.117-1.376s.258-1.371,1.122-1.369,1.117.516,1.115,1.373-.26,1.373-1.119,1.372" transform="translate(-88.142 -21.274)" fill="#fff"/>
        <rect id="Rectangle_701" data-name="Rectangle 701" width="25.615" height="15.962" transform="translate(0)" opacity="0"/>
      </g>
    </g>
  </g>
</svg>
