<svg xmlns="http://www.w3.org/2000/svg" width="40" height="24" viewBox="0 0 40 24">
  <g id="ico_zalopay" transform="translate(-4053 -20577.404)">
    <g id="Rectangle_610" data-name="Rectangle 610" transform="translate(4053 20577.404)" fill="#fff" stroke="#212121" stroke-width="1">
      <rect width="40" height="24" rx="2" stroke="none"/>
      <rect x="0.5" y="0.5" width="39" height="23" rx="1.5" fill="none"/>
    </g>
    <g id="Group_876" data-name="Group 876" transform="translate(4058 20585.404)">
      <g id="Group_874" data-name="Group 874" transform="translate(0 0.622)">
        <path id="Path_458" data-name="Path 458" d="M278.317-459.532a.636.636,0,0,0-.471-.187.636.636,0,0,0-.611.4,1.386,1.386,0,0,0-1.12-.482,1.841,1.841,0,0,0-1.436.657,2.338,2.338,0,0,0-.58,1.607,2.357,2.357,0,0,0,.58,1.607,1.841,1.841,0,0,0,1.436.658,1.386,1.386,0,0,0,1.12-.482.636.636,0,0,0,.611.4.625.625,0,0,0,.471-.191.627.627,0,0,0,.183-.463v-3.069A.607.607,0,0,0,278.317-459.532Zm-1.358,2.754a.782.782,0,0,1-.657.307.782.782,0,0,1-.657-.307,1.205,1.205,0,0,1-.237-.762,1.205,1.205,0,0,1,.237-.763.782.782,0,0,1,.657-.307.782.782,0,0,1,.657.307,1.205,1.205,0,0,1,.237.763A1.213,1.213,0,0,1,276.959-456.777Z" transform="translate(-269.116 462.112)" fill="#118acb"/>
        <path id="Path_459" data-name="Path 459" d="M397.62-515.031a.641.641,0,0,1-.467.188.63.63,0,0,1-.471-.188.615.615,0,0,1-.183-.457v-5.571a.636.636,0,0,1,.183-.457.641.641,0,0,1,.471-.184.625.625,0,0,1,.467.184.614.614,0,0,1,.183.457v5.571a.636.636,0,0,1-.183.457Z" transform="translate(-386.755 521.7)" fill="#118acb"/>
        <path id="Path_460" data-name="Path 460" d="M442.5-459.143a2.115,2.115,0,0,0-1.6-.657,2.1,2.1,0,0,0-1.587.65,2.264,2.264,0,0,0-.615,1.615,2.264,2.264,0,0,0,.615,1.614,2.074,2.074,0,0,0,1.587.65,2.115,2.115,0,0,0,1.6-.658,2.263,2.263,0,0,0,.6-1.607A2.246,2.246,0,0,0,442.5-459.143Zm-.941,2.365a.783.783,0,0,1-.658.307.782.782,0,0,1-.657-.307,1.205,1.205,0,0,1-.237-.762,1.205,1.205,0,0,1,.237-.763.782.782,0,0,1,.657-.307.783.783,0,0,1,.658.307,1.205,1.205,0,0,1,.237.763A1.168,1.168,0,0,1,441.559-456.777Z" transform="translate(-427.313 462.112)" fill="#118acb"/>
        <path id="Path_461" data-name="Path 461" d="M150.26-503.311a2.8,2.8,0,0,0,.693-1.184c0-.471-.3-.7-.9-.7h-3.171a.876.876,0,0,0-.58.172.568.568,0,0,0-.206.452.568.568,0,0,0,.206.452.876.876,0,0,0,.58.172h2.179l-2.785,3.548a1.05,1.05,0,0,0-.272.617c0,.517.346.774,1.039.774h3.268c.521,0,.782-.215.782-.648s-.261-.647-.782-.647h-2.4l2.358-3Z" transform="translate(-146 505.842)" fill="#118acb"/>
      </g>
      <g id="Group_875" data-name="Group 875" transform="translate(16.103 0)">
        <path id="Path_462" data-name="Path 462" d="M618.06-472.1h-.86v1.786h.86a.829.829,0,0,0,.626-.253.894.894,0,0,0,.241-.642.907.907,0,0,0-.241-.642A.835.835,0,0,0,618.06-472.1Z" transform="translate(-615.302 474.617)" fill="#33b44a"/>
        <path id="Path_463" data-name="Path 463" d="M727.875-427.1a.772.772,0,0,0-.642.3,1.177,1.177,0,0,0-.233.743,1.169,1.169,0,0,0,.233.743.772.772,0,0,0,.642.3.772.772,0,0,0,.642-.3,1.177,1.177,0,0,0,.233-.743,1.169,1.169,0,0,0-.233-.743A.757.757,0,0,0,727.875-427.1Z" transform="translate(-720.83 431.342)" fill="#33b44a"/>
        <path id="Path_464" data-name="Path 464" d="M581.549-537.7h-12.4a.747.747,0,0,0-.751.743v7.223a.747.747,0,0,0,.751.743H578.9a.449.449,0,0,1-.156-.342.828.828,0,0,1,.074-.335l.463-1.02-1.284-3.167a.732.732,0,0,1-.058-.3.431.431,0,0,1,.179-.35.574.574,0,0,1,.37-.142.571.571,0,0,1,.58.408l.8,2.163.856-2.163a.623.623,0,0,1,.615-.408.574.574,0,0,1,.37.142.442.442,0,0,1,.179.35.746.746,0,0,1-.058.3l-1.934,4.564a.867.867,0,0,1-.187.3h1.844a.747.747,0,0,0,.751-.743v-7.223A.737.737,0,0,0,581.549-537.7Zm-8.831,4.856a2.134,2.134,0,0,1-1.482.535H570.3v1.435a.648.648,0,0,1-.175.481.617.617,0,0,1-.455.169.633.633,0,0,1-.455-.169.642.642,0,0,1-.175-.481v-4.753a.577.577,0,0,1,.657-.65h1.486a2.207,2.207,0,0,1,1.544.554,1.851,1.851,0,0,1,.611,1.439A1.824,1.824,0,0,1,572.718-532.844Zm4.878,1.912a.609.609,0,0,1-.179.446.61.61,0,0,1-.459.181.623.623,0,0,1-.6-.389,1.371,1.371,0,0,1-1.1.465,1.815,1.815,0,0,1-1.4-.635,2.432,2.432,0,0,1-.568-1.62,2.263,2.263,0,0,1,.568-1.555,1.81,1.81,0,0,1,1.4-.635,1.371,1.371,0,0,1,1.1.466.623.623,0,0,1,.6-.389.625.625,0,0,1,.459.181.609.609,0,0,1,.179.446Z" transform="translate(-568.4 537.7)" fill="#33b44a"/>
      </g>
    </g>
  </g>
</svg>
