<svg xmlns="http://www.w3.org/2000/svg" width="40" height="24" viewBox="0 0 40 24">
  <g id="ico_Transfer" transform="translate(-3837 -20577)">
    <g id="Rectangle_610" data-name="Rectangle 610" transform="translate(3837 20577)" fill="#fff" stroke="#212121" stroke-width="1">
      <rect width="40" height="24" rx="2" stroke="none"/>
      <rect x="0.5" y="0.5" width="39" height="23" rx="1.5" fill="none"/>
    </g>
    <g id="noun_bank_transfer_1453092" data-name="noun_bank transfer_1453092" transform="translate(3847 20581.121)">
      <path id="Path_471" data-name="Path 471" d="M16.475,16a5.292,5.292,0,0,0-4.606,2.717A5.332,5.332,0,0,0,7.264,16a5.238,5.238,0,1,0,0,10.477,5.332,5.332,0,0,0,4.606-2.717A5.253,5.253,0,1,0,16.475,16ZM7.264,25.822A4.584,4.584,0,1,1,11.507,19.5a5.233,5.233,0,0,0,0,3.47A4.6,4.6,0,0,1,7.264,25.822Zm9.211,0a4.584,4.584,0,1,1,4.606-4.584A4.608,4.608,0,0,1,16.475,25.822Z" transform="translate(-2 -12.981)"/>
      <path id="Path_472" data-name="Path 472" d="M14.635,23.322v-.663L11.317,21,8,22.659v.663h.663v2.322H8.332v.663H8v.663h6.635v-.663H14.3v-.663h-.332V23.322Zm-2.654,2.322H10.654V23.322h1.327ZM9.327,23.322H9.99v2.322H9.327Zm3.981,2.322h-.663V23.322h.663Z" transform="translate(-6.01 -16.383)"/>
      <path id="Path_473" data-name="Path 473" d="M43.981,24.322V23.99a1.331,1.331,0,0,0-1.327-1.327h-.332V22h-.663v.663h-.332A1.331,1.331,0,0,0,40,23.99v.332a1.331,1.331,0,0,0,1.327,1.327h.332v1.659h-.332a.665.665,0,0,1-.663-.663v-.332H40v.332a1.331,1.331,0,0,0,1.327,1.327h.332v.663h.663v-.663h.332a1.331,1.331,0,0,0,1.327-1.327v-.332a1.331,1.331,0,0,0-1.327-1.327h-.332V23.327h.332a.665.665,0,0,1,.663.663v.332Zm-1.327,1.327a.665.665,0,0,1,.663.663v.332a.665.665,0,0,1-.663.663h-.332V25.649Zm-1-.663h-.332a.665.665,0,0,1-.663-.663V23.99a.665.665,0,0,1,.663-.663h.332Z" transform="translate(-27.526 -17.06)"/>
      <path id="Path_474" data-name="Path 474" d="M25.948,9.255,24.772,6.9l-.555.829a7.8,7.8,0,0,0-3.462-.8A8.111,8.111,0,0,0,15.3,9.056l.425.5A7.5,7.5,0,0,1,20.755,7.6a7.088,7.088,0,0,1,3.1.7l-.523.829Z" transform="translate(-10.888 -6.9)"/>
      <path id="Path_475" data-name="Path 475" d="M26.682,49.8l-.425-.5a7.427,7.427,0,0,1-4.964,1.891,7.087,7.087,0,0,1-3.1-.7l.523-.829L16.1,49.5l1.176,2.355.555-.829A8.088,8.088,0,0,0,26.682,49.8Z" transform="translate(-11.422 -35.373)"/>
    </g>
  </g>
</svg>
